# xmcd
#
# Track frame offsets:
#	150
#	19614
#	41599
#	56880
#	74308
#	94404
#	109056
#	126623
#	143934
#	164368
#
# Disc length: 2395 seconds
#
# Revision: 1
# Processed by: cddbd v1.5.2PL0 Copyright (c) Steve Scherf et al.
# Submitted via: EasyCDDAExtractor 8.2.1.1
#
DISCID=9509590a
DTITLE=Blind Boys of Alabama - Holdin' On
DYEAR=1997
DGENRE=Gospel
TTITLE0=Holdin' On
TTITLE1=Sacrifice
TTITLE2=Nobody Knows the Trouble I've Seen
TTITLE3=Somebody's Gone
TTITLE4=Sing a Song
TTITLE5=Down by the Riverside
TTITLE6=You'll Never Walk Alone
TTITLE7=There's Nothing In This World without a Heart
TTITLE8=He
TTITLE9=Spirit of the Lord is coming down
EXTD=\\t
EXTT0=
EXTT1=
EXTT2=
EXTT3=
EXTT4=
EXTT5=
EXTT6=
EXTT7=
EXTT8=
EXTT9=
PLAYORDER=
